<?xml version="1.0" encoding="UTF-8" standalone="no"?>
<!DOCTYPE svg PUBLIC "-//W3C//DTD SVG 1.1//EN" "http://www.w3.org/Graphics/SVG/1.1/DTD/svg11.dtd">
<svg width="100%" height="100%" viewBox="0 0 1080 1080" version="1.1" xmlns="http://www.w3.org/2000/svg" xmlns:xlink="http://www.w3.org/1999/xlink" xml:space="preserve" xmlns:serif="http://www.serif.com/" style="fill-rule:evenodd;clip-rule:evenodd;stroke-linecap:round;stroke-linejoin:round;stroke-miterlimit:1.5;">
    <g transform="matrix(1.19212,0,0,1.19212,-396.316,-114.223)">
        <g>
            <path d="M437.953,492.734L512.646,536.739" style="fill:none;stroke:white;stroke-width:7.55px;"/>
            <g transform="matrix(-1.02123,0.0125075,-0.0125075,1.00737,1082.66,-9.10853)">
                <path d="M437.953,492.734L512.646,536.739" style="fill:none;stroke:white;stroke-width:7.35px;"/>
            </g>
            <g transform="matrix(0.507603,-0.886231,-0.861591,-0.52212,734.44,1304.46)">
                <path d="M437.953,492.734L512.646,536.739" style="fill:none;stroke:white;stroke-width:7.35px;"/>
            </g>
            <g transform="matrix(1.08396,0,0,1.08396,-47.8922,-52.9063)">
                <ellipse cx="535.172" cy="553.942" rx="20.616" ry="20.624" style="fill:white;"/>
            </g>
        </g>
        <g transform="matrix(1,0,0,1,-0.550918,0.250937)">
            <path d="M437.099,472.331L471.773,453.806L532.793,489.017L594.956,453.806L552.277,428.372" style="fill:none;stroke:white;stroke-width:7.55px;"/>
        </g>
        <g transform="matrix(-0.481279,0.876568,-0.876568,-0.481279,1270,346.125)">
            <path d="M437.099,472.331L471.773,453.806L532.793,489.017L594.956,453.806L552.277,428.372" style="fill:none;stroke:white;stroke-width:7.55px;"/>
        </g>
        <g transform="matrix(-0.511698,-0.859166,0.859166,-0.511698,334.482,1286.32)">
            <path d="M437.099,472.331L471.773,453.806L532.793,489.017L594.956,453.806L552.277,428.372" style="fill:none;stroke:white;stroke-width:7.55px;"/>
        </g>
        <g transform="matrix(1.08396,0,0,1.08396,-45.7929,79.4542)">
            <path d="M535.172,533.318C546.55,533.318 555.788,542.559 555.788,553.942C555.788,565.325 546.55,574.566 535.172,574.566C523.794,574.566 514.557,565.325 514.557,553.942C514.557,542.559 523.794,533.318 535.172,533.318ZM535.172,542.663C528.95,542.663 523.898,547.717 523.898,553.942C523.898,560.167 528.95,565.222 535.172,565.222C541.395,565.222 546.447,560.167 546.447,553.942C546.447,547.717 541.395,542.663 535.172,542.663Z" style="fill:white;"/>
        </g>
        <g transform="matrix(1.08396,0,0,1.08396,65.4049,-120.532)">
            <path d="M535.172,533.318C546.55,533.318 555.788,542.559 555.788,553.942C555.788,565.325 546.55,574.566 535.172,574.566C523.794,574.566 514.557,565.325 514.557,553.942C514.557,542.559 523.794,533.318 535.172,533.318ZM535.172,542.663C528.95,542.663 523.898,547.717 523.898,553.942C523.898,560.167 528.95,565.222 535.172,565.222C541.395,565.222 546.447,560.167 546.447,553.942C546.447,547.717 541.395,542.663 535.172,542.663Z" style="fill:white;"/>
        </g>
        <g transform="matrix(1.08396,0,0,1.08396,-162.441,-117.087)">
            <path d="M535.172,533.318C546.55,533.318 555.788,542.559 555.788,553.942C555.788,565.325 546.55,574.566 535.172,574.566C523.794,574.566 514.557,565.325 514.557,553.942C514.557,542.559 523.794,533.318 535.172,533.318ZM535.172,542.663C528.95,542.663 523.898,547.717 523.898,553.942C523.898,560.167 528.95,565.222 535.172,565.222C541.395,565.222 546.447,560.167 546.447,553.942C546.447,547.717 541.395,542.663 535.172,542.663Z" style="fill:white;"/>
        </g>
        <g transform="matrix(1.08396,0,0,1.08396,-160.176,12.9229)">
            <ellipse cx="535.172" cy="553.942" rx="20.616" ry="20.624" style="fill:white;"/>
        </g>
        <g transform="matrix(1.08396,0,0,1.08396,65.5015,11.8622)">
            <ellipse cx="535.172" cy="553.942" rx="20.616" ry="20.624" style="fill:white;"/>
        </g>
        <g transform="matrix(1.08396,0,0,1.08396,-47.8612,-182.773)">
            <ellipse cx="535.172" cy="553.942" rx="20.616" ry="20.624" style="fill:white;"/>
        </g>
        <g transform="matrix(1,0,0,1,253.35,41.2936)">
            <clipPath id="_clip1">
                <path d="M497.436,527.323L538.062,527.323L538.062,540L479.262,540L479.262,531.142L518.208,476.312L480.789,476.312L480.789,463.636L536.535,463.636L536.535,472.494L497.436,527.323ZM558.528,507.927C559.852,514.749 562.983,520.043 567.921,523.811C572.859,527.578 578.943,529.462 586.172,529.462C596.252,529.462 603.583,525.745 608.165,518.312L619.467,524.727C612.034,536.233 600.834,541.985 585.866,541.985C573.75,541.985 563.899,538.193 556.313,530.607C548.728,523.022 544.935,513.425 544.935,501.818C544.935,490.312 548.652,480.741 556.084,473.105C563.517,465.468 573.139,461.65 584.95,461.65C596.15,461.65 605.288,465.596 612.365,473.487C619.441,481.378 622.98,490.872 622.98,501.97C622.98,503.905 622.827,505.891 622.521,507.927L558.528,507.927ZM584.95,474.174C577.823,474.174 571.917,476.185 567.234,480.207C562.55,484.228 559.648,489.599 558.528,496.32L609.539,496.32C608.419,489.09 605.569,483.592 600.987,479.825C596.405,476.057 591.059,474.174 584.95,474.174ZM646.653,484.254C646.653,487.207 648.129,489.574 651.082,491.356C654.034,493.138 657.598,494.563 661.773,495.632C665.947,496.701 670.122,497.923 674.297,499.298C678.471,500.672 682.035,503.014 684.988,506.323C687.94,509.632 689.417,513.883 689.417,519.076C689.417,526 686.744,531.549 681.398,535.724C676.053,539.898 669.206,541.985 660.856,541.985C653.424,541.985 647.06,540.356 641.765,537.098C636.471,533.84 632.703,529.513 630.463,524.116L641.918,517.549C643.14,521.214 645.431,524.116 648.791,526.254C652.151,528.393 656.173,529.462 660.856,529.462C665.235,529.462 668.849,528.622 671.7,526.942C674.551,525.262 675.977,522.64 675.977,519.076C675.977,516.123 674.5,513.756 671.547,511.974C668.595,510.192 665.031,508.767 660.856,507.698C656.682,506.629 652.507,505.381 648.333,503.956C644.158,502.53 640.594,500.189 637.642,496.93C634.689,493.672 633.212,489.498 633.212,484.407C633.212,477.788 635.783,472.341 640.925,468.065C646.067,463.788 652.507,461.65 660.245,461.65C666.456,461.65 671.98,463.05 676.817,465.85C681.653,468.65 685.293,472.545 687.737,477.534L676.587,483.796C673.838,477.279 668.391,474.021 660.245,474.021C656.478,474.021 653.271,474.912 650.624,476.694C647.976,478.476 646.653,480.996 646.653,484.254ZM743.635,476.465L723.323,476.465L723.323,517.854C723.323,521.622 724.061,524.294 725.537,525.873C727.013,527.451 729.279,528.265 732.334,528.316C735.388,528.367 739.155,528.291 743.635,528.087L743.635,540C732.028,541.527 723.526,540.585 718.13,537.175C712.733,533.764 710.035,527.323 710.035,517.854L710.035,476.465L694.915,476.465L694.915,463.636L710.035,463.636L710.035,446.224L723.323,442.253L723.323,463.636L743.635,463.636L743.635,476.465ZM773.112,476.465C777.49,466.996 785.432,462.261 796.938,462.261L796.938,476.159C790.421,475.854 784.821,477.585 780.138,481.352C775.454,485.119 773.112,491.178 773.112,499.527L773.112,540L759.825,540L759.825,463.636L773.112,463.636L773.112,476.465ZM869.026,463.636L882.313,463.636L882.313,540L869.026,540L869.026,526.865C862.408,536.945 852.786,541.985 840.16,541.985C829.469,541.985 820.356,538.091 812.822,530.302C805.287,522.513 801.52,513.018 801.52,501.818C801.52,490.618 805.287,481.123 812.822,473.334C820.356,465.545 829.469,461.65 840.16,461.65C852.786,461.65 862.408,466.69 869.026,476.77L869.026,463.636ZM841.84,529.156C849.578,529.156 856.044,526.534 861.237,521.291C866.43,516.047 869.026,509.556 869.026,501.818C869.026,494.079 866.43,487.589 861.237,482.345C856.044,477.101 849.578,474.479 841.84,474.479C834.204,474.479 827.789,477.101 822.596,482.345C817.404,487.589 814.807,494.079 814.807,501.818C814.807,509.556 817.404,516.047 822.596,521.291C827.789,526.534 834.204,529.156 841.84,529.156ZM902.474,540L902.474,428.508L915.761,428.508L915.761,540L902.474,540Z" clip-rule="nonzero"/>
            </clipPath>
            <g clip-path="url(#_clip1)">
                <g transform="matrix(152.729,0,0,152.729,925.994,540)">
                </g>
                <text x="471.931px" y="540px" style="font-family:'Gilroy-Medium';font-size:152.729px;fill:rgb(242,242,242);">z<tspan x="539.131px 625.118px 692.013px 749.745px 795.716px " y="540px 540px 540px 540px 540px ">estra</tspan>l</text>
                <g transform="matrix(0.838841,0,0,0.838841,79.0964,54.5212)">
                    <path d="M498.712,563.638L547.143,563.638L547.143,578.75L477.045,578.75L477.045,568.189L523.474,502.826L478.866,502.826L478.866,487.714L545.322,487.714L545.322,498.274L498.712,563.638ZM571.541,540.515C573.118,548.647 576.851,554.959 582.738,559.45C588.625,563.941 595.877,566.187 604.495,566.187C616.512,566.187 625.252,561.756 630.714,552.895L644.187,560.542C635.326,574.258 621.974,581.116 604.131,581.116C589.687,581.116 577.943,576.595 568.9,567.552C559.858,558.509 555.336,547.069 555.336,533.232C555.336,519.516 559.767,508.106 568.627,499.002C577.488,489.899 588.959,485.347 603.039,485.347C616.391,485.347 627.285,490.05 635.721,499.457C644.157,508.864 648.375,520.183 648.375,533.414C648.375,535.72 648.193,538.087 647.828,540.515L571.541,540.515ZM603.039,500.277C594.542,500.277 587.502,502.674 581.919,507.469C576.335,512.263 572.876,518.666 571.541,526.677L632.352,526.677C631.017,518.059 627.618,511.505 622.156,507.013C616.694,502.522 610.322,500.277 603.039,500.277Z" style="fill:white;"/>
                </g>
                <g transform="matrix(0.838841,0,0,0.838841,79.0964,54.5212)">
                    <path d="M676.596,512.293C676.596,515.814 678.356,518.636 681.876,520.76C685.396,522.884 689.644,524.583 694.621,525.858C699.597,527.132 704.574,528.589 709.551,530.228C714.527,531.866 718.776,534.658 722.296,538.603C725.816,542.548 727.576,547.615 727.576,553.806C727.576,562.06 724.389,568.675 718.017,573.652C711.644,578.628 703.482,581.116 693.528,581.116C684.668,581.116 677.081,579.174 670.769,575.29C664.458,571.406 659.967,566.247 657.296,559.814L670.951,551.985C672.408,556.355 675.139,559.814 679.145,562.363C683.15,564.912 687.945,566.187 693.528,566.187C698.748,566.187 703.057,565.185 706.455,563.182C709.854,561.18 711.553,558.054 711.553,553.806C711.553,550.286 709.793,547.464 706.273,545.339C702.753,543.215 698.505,541.516 693.528,540.241C688.552,538.967 683.575,537.48 678.598,535.781C673.622,534.081 669.374,531.29 665.853,527.405C662.333,523.521 660.573,518.545 660.573,512.476C660.573,504.586 663.638,498.092 669.768,492.994C675.898,487.896 683.575,485.347 692.8,485.347C700.204,485.347 706.789,487.016 712.555,490.354C718.32,493.692 722.66,498.335 725.573,504.282L712.282,511.747C709.004,503.979 702.511,500.095 692.8,500.095C688.309,500.095 684.485,501.157 681.33,503.281C678.174,505.405 676.596,508.409 676.596,512.293ZM792.211,503.008L767.996,503.008L767.996,552.349C767.996,556.84 768.876,560.027 770.636,561.908C772.396,563.789 775.096,564.76 778.738,564.821C782.379,564.882 786.87,564.791 792.211,564.548L792.211,578.75C778.374,580.57 768.238,579.447 761.805,575.381C755.372,571.315 752.155,563.638 752.155,552.349L752.155,503.008L734.13,503.008L734.13,487.714L752.155,487.714L752.155,466.958L767.996,462.224L767.996,487.714L792.211,487.714L792.211,503.008ZM827.351,503.008C832.57,491.719 842.038,486.075 855.754,486.075L855.754,502.644C847.986,502.28 841.31,504.343 835.726,508.834C830.143,513.325 827.351,520.547 827.351,530.501L827.351,578.75L811.511,578.75L811.511,487.714L827.351,487.714L827.351,503.008Z" style="fill:white;"/>
                </g>
                <g transform="matrix(0.838841,0,0,0.838841,79.0964,54.5212)">
                    <path d="M941.692,487.714L957.532,487.714L957.532,578.75L941.692,578.75L941.692,563.091C933.802,575.108 922.331,581.116 907.28,581.116C894.535,581.116 883.672,576.474 874.689,567.188C865.707,557.902 861.216,546.584 861.216,533.232C861.216,519.88 865.707,508.561 874.689,499.275C883.672,489.99 894.535,485.347 907.28,485.347C922.331,485.347 933.802,491.355 941.692,503.372L941.692,487.714ZM909.283,565.822C918.508,565.822 926.216,562.697 932.406,556.446C938.596,550.195 941.692,542.457 941.692,533.232C941.692,524.007 938.596,516.269 932.406,510.018C926.216,503.766 918.508,500.641 909.283,500.641C900.179,500.641 892.532,503.766 886.342,510.018C880.152,516.269 877.056,524.007 877.056,533.232C877.056,542.457 880.152,550.195 886.342,556.446C892.532,562.697 900.179,565.822 909.283,565.822Z" style="fill:white;"/>
                </g>
                <g transform="matrix(0.838841,0,0,0.838841,79.0964,54.5212)">
                    <rect x="981.565" y="445.837" width="15.84" height="132.912" style="fill:white;"/>
                </g>
            </g>
        </g>
    </g>
    <g transform="matrix(1.26371,0,0,1.2713,-120.287,-56.8875)">
        <clipPath id="_clip2">
            <path d="M480.507,540L472.251,517.6L474.683,517.6L481.659,537.024L488.635,517.6L491.067,517.6L482.811,540L480.507,540ZM495.131,520.16C494.832,520.459 494.469,520.608 494.043,520.608C493.616,520.608 493.253,520.459 492.955,520.16C492.656,519.861 492.507,519.499 492.507,519.072C492.507,518.645 492.656,518.283 492.955,517.984C493.253,517.685 493.616,517.536 494.043,517.536C494.469,517.536 494.832,517.685 495.131,517.984C495.429,518.283 495.579,518.645 495.579,519.072C495.579,519.499 495.429,519.861 495.131,520.16ZM492.987,540L492.987,524L495.099,524L495.099,540L492.987,540ZM501.243,528.192C501.243,528.917 501.563,529.493 502.203,529.92C502.843,530.347 503.621,530.677 504.539,530.912C505.456,531.147 506.373,531.408 507.291,531.696C508.208,531.984 508.987,532.464 509.627,533.136C510.267,533.808 510.587,534.688 510.587,535.776C510.587,537.141 510.048,538.251 508.971,539.104C507.893,539.957 506.501,540.384 504.795,540.384C503.259,540.384 501.952,540.043 500.875,539.36C499.797,538.677 499.045,537.792 498.619,536.704L500.411,535.648C500.709,536.48 501.248,537.136 502.027,537.616C502.805,538.096 503.728,538.336 504.795,538.336C505.84,538.336 506.715,538.128 507.419,537.712C508.123,537.296 508.475,536.651 508.475,535.776C508.475,535.051 508.155,534.475 507.515,534.048C506.875,533.621 506.096,533.291 505.179,533.056C504.261,532.821 503.344,532.56 502.427,532.272C501.509,531.984 500.731,531.504 500.091,530.832C499.451,530.16 499.131,529.28 499.131,528.192C499.131,526.891 499.648,525.803 500.683,524.928C501.717,524.053 503.024,523.616 504.603,523.616C505.904,523.616 507.045,523.909 508.027,524.496C509.008,525.083 509.733,525.877 510.203,526.88L508.443,527.904C507.824,526.411 506.544,525.664 504.603,525.664C503.685,525.664 502.896,525.883 502.235,526.32C501.573,526.757 501.243,527.381 501.243,528.192ZM525.211,524L527.323,524L527.323,540L525.211,540L525.211,537.504C524.016,539.424 522.224,540.384 519.835,540.384C517.893,540.384 516.363,539.792 515.243,538.608C514.123,537.424 513.563,535.829 513.563,533.824L513.563,524L515.675,524L515.675,533.824C515.675,535.253 516.053,536.363 516.811,537.152C517.568,537.941 518.64,538.336 520.027,538.336C521.563,538.336 522.811,537.851 523.771,536.88C524.731,535.909 525.211,534.411 525.211,532.384L525.211,524ZM545.563,524L547.675,524L547.675,540L545.563,540L545.563,536.864C544.091,539.211 541.936,540.384 539.099,540.384C536.816,540.384 534.869,539.573 533.259,537.952C531.648,536.331 530.843,534.347 530.843,532C530.843,529.653 531.648,527.669 533.259,526.048C534.869,524.427 536.816,523.616 539.099,523.616C541.936,523.616 544.091,524.789 545.563,527.136L545.563,524ZM534.779,536.512C535.995,537.728 537.488,538.336 539.259,538.336C541.029,538.336 542.523,537.723 543.739,536.496C544.955,535.269 545.563,533.771 545.563,532C545.563,530.229 544.955,528.731 543.739,527.504C542.523,526.277 541.029,525.664 539.259,525.664C537.488,525.664 535.995,526.277 534.779,527.504C533.563,528.731 532.955,530.229 532.955,532C532.955,533.771 533.563,535.275 534.779,536.512ZM552.155,540L552.155,516.64L554.267,516.64L554.267,540L552.155,540ZM560.891,520.16C560.592,520.459 560.229,520.608 559.803,520.608C559.376,520.608 559.013,520.459 558.715,520.16C558.416,519.861 558.267,519.499 558.267,519.072C558.267,518.645 558.416,518.283 558.715,517.984C559.013,517.685 559.376,517.536 559.803,517.536C560.229,517.536 560.592,517.685 560.891,517.984C561.189,518.283 561.339,518.645 561.339,519.072C561.339,519.499 561.189,519.861 560.891,520.16ZM558.747,540L558.747,524L560.859,524L560.859,540L558.747,540ZM567.643,537.952L576.859,537.952L576.859,540L564.699,540L564.699,538.592L573.595,526.048L565.019,526.048L565.019,524L576.539,524L576.539,525.408L567.643,537.952ZM586.811,523.616C589.179,523.616 591.093,524.453 592.555,526.128C594.016,527.803 594.747,529.781 594.747,532.064C594.747,532.299 594.725,532.629 594.683,533.056L580.635,533.056C580.848,534.677 581.536,535.963 582.699,536.912C583.861,537.861 585.296,538.336 587.003,538.336C588.219,538.336 589.269,538.085 590.155,537.584C591.04,537.083 591.707,536.427 592.155,535.616L594.011,536.704C593.307,537.835 592.347,538.731 591.131,539.392C589.915,540.053 588.528,540.384 586.971,540.384C584.453,540.384 582.405,539.595 580.827,538.016C579.248,536.437 578.459,534.432 578.459,532C578.459,529.611 579.237,527.616 580.795,526.016C582.352,524.416 584.357,523.616 586.811,523.616ZM586.811,525.664C585.147,525.664 583.755,526.16 582.635,527.152C581.515,528.144 580.848,529.429 580.635,531.008L592.571,531.008C592.357,529.323 591.707,528.011 590.619,527.072C589.531,526.133 588.261,525.664 586.811,525.664ZM599.515,539.808C599.173,540.149 598.757,540.32 598.267,540.32C597.776,540.32 597.36,540.149 597.019,539.808C596.677,539.467 596.507,539.051 596.507,538.56C596.507,538.069 596.677,537.653 597.019,537.312C597.36,536.971 597.776,536.8 598.267,536.8C598.757,536.8 599.173,536.971 599.515,537.312C599.856,537.653 600.027,538.069 600.027,538.56C600.027,539.051 599.856,539.467 599.515,539.808ZM612.507,517.6L614.747,517.6L614.747,540L612.507,540L612.507,517.6ZM627.035,523.616C628.976,523.616 630.507,524.208 631.627,525.392C632.747,526.576 633.307,528.171 633.307,530.176L633.307,540L631.195,540L631.195,530.176C631.195,528.747 630.816,527.637 630.059,526.848C629.301,526.059 628.229,525.664 626.843,525.664C625.307,525.664 624.059,526.149 623.099,527.12C622.139,528.091 621.659,529.589 621.659,531.616L621.659,540L619.547,540L619.547,524L621.659,524L621.659,526.496C622.853,524.576 624.645,523.616 627.035,523.616ZM644.891,523.616C646.832,523.616 648.363,524.208 649.483,525.392C650.603,526.576 651.163,528.171 651.163,530.176L651.163,540L649.051,540L649.051,530.176C649.051,528.747 648.672,527.637 647.915,526.848C647.157,526.059 646.085,525.664 644.699,525.664C643.163,525.664 641.915,526.149 640.955,527.12C639.995,528.091 639.515,529.589 639.515,531.616L639.515,540L637.403,540L637.403,524L639.515,524L639.515,526.496C640.709,524.576 642.501,523.616 644.891,523.616ZM668.667,537.984C667.045,539.584 665.061,540.384 662.715,540.384C660.368,540.384 658.379,539.579 656.747,537.968C655.115,536.357 654.299,534.368 654.299,532C654.299,529.632 655.115,527.643 656.747,526.032C658.379,524.421 660.368,523.616 662.715,523.616C665.061,523.616 667.051,524.421 668.683,526.032C670.315,527.643 671.131,529.632 671.131,532C671.131,534.368 670.309,536.363 668.667,537.984ZM658.235,536.512C659.451,537.728 660.944,538.336 662.715,538.336C664.485,538.336 665.979,537.723 667.195,536.496C668.411,535.269 669.019,533.771 669.019,532C669.019,530.229 668.411,528.731 667.195,527.504C665.979,526.277 664.485,525.664 662.715,525.664C660.944,525.664 659.451,526.277 658.235,527.504C657.019,528.731 656.411,530.229 656.411,532C656.411,533.771 657.019,535.275 658.235,536.512ZM685.531,524L687.771,524L681.211,540L678.651,540L672.091,524L674.331,524L679.931,537.792L685.531,524ZM703.451,524L705.563,524L705.563,540L703.451,540L703.451,536.864C701.979,539.211 699.824,540.384 696.987,540.384C694.704,540.384 692.757,539.573 691.147,537.952C689.536,536.331 688.731,534.347 688.731,532C688.731,529.653 689.536,527.669 691.147,526.048C692.757,524.427 694.704,523.616 696.987,523.616C699.824,523.616 701.979,524.789 703.451,527.136L703.451,524ZM692.667,536.512C693.883,537.728 695.376,538.336 697.147,538.336C698.917,538.336 700.411,537.723 701.627,536.496C702.843,535.269 703.451,533.771 703.451,532C703.451,530.229 702.843,528.731 701.627,527.504C700.411,526.277 698.917,525.664 697.147,525.664C695.376,525.664 693.883,526.277 692.667,527.504C691.451,528.731 690.843,530.229 690.843,532C690.843,533.771 691.451,535.275 692.667,536.512ZM718.523,526.048L713.915,526.048L713.915,535.744C713.915,536.619 714.085,537.243 714.427,537.616C714.768,537.989 715.28,538.181 715.963,538.192C716.645,538.203 717.499,538.187 718.523,538.144L718.523,540C716.283,540.341 714.603,540.181 713.483,539.52C712.363,538.859 711.803,537.6 711.803,535.744L711.803,526.048L708.443,526.048L708.443,524L711.803,524L711.803,520.16L713.915,519.52L713.915,524L718.523,524L718.523,526.048ZM728.475,523.616C730.843,523.616 732.757,524.453 734.219,526.128C735.68,527.803 736.411,529.781 736.411,532.064C736.411,532.299 736.389,532.629 736.347,533.056L722.299,533.056C722.512,534.677 723.2,535.963 724.363,536.912C725.525,537.861 726.96,538.336 728.667,538.336C729.883,538.336 730.933,538.085 731.819,537.584C732.704,537.083 733.371,536.427 733.819,535.616L735.675,536.704C734.971,537.835 734.011,538.731 732.795,539.392C731.579,540.053 730.192,540.384 728.635,540.384C726.117,540.384 724.069,539.595 722.491,538.016C720.912,536.437 720.123,534.432 720.123,532C720.123,529.611 720.901,527.616 722.459,526.016C724.016,524.416 726.021,523.616 728.475,523.616ZM728.475,525.664C726.811,525.664 725.419,526.16 724.299,527.152C723.179,528.144 722.512,529.429 722.299,531.008L734.235,531.008C734.021,529.323 733.371,528.011 732.283,527.072C731.195,526.133 729.925,525.664 728.475,525.664ZM741.179,539.808C740.837,540.149 740.421,540.32 739.931,540.32C739.44,540.32 739.024,540.149 738.683,539.808C738.341,539.467 738.171,539.051 738.171,538.56C738.171,538.069 738.341,537.653 738.683,537.312C739.024,536.971 739.44,536.8 739.931,536.8C740.421,536.8 740.837,536.971 741.179,537.312C741.52,537.653 741.691,538.069 741.691,538.56C741.691,539.051 741.52,539.467 741.179,539.808ZM769.083,540L767.003,534.496L756.379,534.496L754.299,540L751.931,540L760.539,517.6L762.843,517.6L771.451,540L769.083,540ZM757.179,532.384L766.203,532.384L761.691,520.384L757.179,532.384ZM785.115,524L787.227,524L787.227,540L785.115,540L785.115,537.504C783.92,539.424 782.128,540.384 779.739,540.384C777.797,540.384 776.267,539.792 775.147,538.608C774.027,537.424 773.467,535.829 773.467,533.824L773.467,524L775.579,524L775.579,533.824C775.579,535.253 775.957,536.363 776.715,537.152C777.472,537.941 778.544,538.336 779.931,538.336C781.467,538.336 782.715,537.851 783.675,536.88C784.635,535.909 785.115,534.411 785.115,532.384L785.115,524ZM800.187,526.048L795.579,526.048L795.579,535.744C795.579,536.619 795.749,537.243 796.091,537.616C796.432,537.989 796.944,538.181 797.627,538.192C798.309,538.203 799.163,538.187 800.187,538.144L800.187,540C797.947,540.341 796.267,540.181 795.147,539.52C794.027,538.859 793.467,537.6 793.467,535.744L793.467,526.048L790.107,526.048L790.107,524L793.467,524L793.467,520.16L795.579,519.52L795.579,524L800.187,524L800.187,526.048ZM816.155,537.984C814.533,539.584 812.549,540.384 810.203,540.384C807.856,540.384 805.867,539.579 804.235,537.968C802.603,536.357 801.787,534.368 801.787,532C801.787,529.632 802.603,527.643 804.235,526.032C805.867,524.421 807.856,523.616 810.203,523.616C812.549,523.616 814.539,524.421 816.171,526.032C817.803,527.643 818.619,529.632 818.619,532C818.619,534.368 817.797,536.363 816.155,537.984ZM805.723,536.512C806.939,537.728 808.432,538.336 810.203,538.336C811.973,538.336 813.467,537.723 814.683,536.496C815.899,535.269 816.507,533.771 816.507,532C816.507,530.229 815.899,528.731 814.683,527.504C813.467,526.277 811.973,525.664 810.203,525.664C808.432,525.664 806.939,526.277 805.723,527.504C804.507,528.731 803.899,530.229 803.899,532C803.899,533.771 804.507,535.275 805.723,536.512ZM839.195,523.616C840.987,523.616 842.432,524.192 843.531,525.344C844.629,526.496 845.179,528.053 845.179,530.016L845.179,540L843.067,540L843.067,530.016C843.067,528.629 842.709,527.557 841.995,526.8C841.28,526.043 840.336,525.664 839.163,525.664C837.84,525.664 836.768,526.107 835.947,526.992C835.125,527.877 834.715,529.259 834.715,531.136L834.715,540L832.603,540L832.603,530.016C832.603,528.608 832.267,527.531 831.595,526.784C830.923,526.037 830.011,525.664 828.859,525.664C827.579,525.664 826.491,526.112 825.595,527.008C824.699,527.904 824.251,529.28 824.251,531.136L824.251,540L822.139,540L822.139,524L824.251,524L824.251,526.336C825.403,524.523 827.035,523.616 829.147,523.616C831.451,523.616 833.072,524.587 834.011,526.528C835.163,524.587 836.891,523.616 839.195,523.616ZM863.035,524L865.147,524L865.147,540L863.035,540L863.035,536.864C861.563,539.211 859.408,540.384 856.571,540.384C854.288,540.384 852.341,539.573 850.731,537.952C849.12,536.331 848.315,534.347 848.315,532C848.315,529.653 849.12,527.669 850.731,526.048C852.341,524.427 854.288,523.616 856.571,523.616C859.408,523.616 861.563,524.789 863.035,527.136L863.035,524ZM852.251,536.512C853.467,537.728 854.96,538.336 856.731,538.336C858.501,538.336 859.995,537.723 861.211,536.496C862.427,535.269 863.035,533.771 863.035,532C863.035,530.229 862.427,528.731 861.211,527.504C859.995,526.277 858.501,525.664 856.731,525.664C854.96,525.664 853.467,526.277 852.251,527.504C851.035,528.731 850.427,530.229 850.427,532C850.427,533.771 851.035,535.275 852.251,536.512ZM878.107,526.048L873.499,526.048L873.499,535.744C873.499,536.619 873.669,537.243 874.011,537.616C874.352,537.989 874.864,538.181 875.547,538.192C876.229,538.203 877.083,538.187 878.107,538.144L878.107,540C875.867,540.341 874.187,540.181 873.067,539.52C871.947,538.859 871.387,537.6 871.387,535.744L871.387,526.048L868.027,526.048L868.027,524L871.387,524L871.387,520.16L873.499,519.52L873.499,524L878.107,524L878.107,526.048ZM888.059,523.616C890.427,523.616 892.341,524.453 893.803,526.128C895.264,527.803 895.995,529.781 895.995,532.064C895.995,532.299 895.973,532.629 895.931,533.056L881.883,533.056C882.096,534.677 882.784,535.963 883.947,536.912C885.109,537.861 886.544,538.336 888.251,538.336C889.467,538.336 890.517,538.085 891.403,537.584C892.288,537.083 892.955,536.427 893.403,535.616L895.259,536.704C894.555,537.835 893.595,538.731 892.379,539.392C891.163,540.053 889.776,540.384 888.219,540.384C885.701,540.384 883.653,539.595 882.075,538.016C880.496,536.437 879.707,534.432 879.707,532C879.707,529.611 880.485,527.616 882.043,526.016C883.6,524.416 885.605,523.616 888.059,523.616ZM888.059,525.664C886.395,525.664 885.003,526.16 883.883,527.152C882.763,528.144 882.096,529.429 881.883,531.008L893.819,531.008C893.605,529.323 892.955,528.011 891.867,527.072C890.779,526.133 889.509,525.664 888.059,525.664Z" clip-rule="nonzero"/>
        </clipPath>
        <g clip-path="url(#_clip2)">
            <g transform="matrix(32,0,0,32,897.115,540)">
            </g>
            <text x="471.931px" y="540px" style="font-family:'Gilroy-Regular';font-size:32px;fill:white;">V<tspan x="490.747px 497.339px 511.707px " y="540px 540px 540px ">isu</tspan>aliz<tspan x="577.179px 594.587px " y="540px 540px ">e.</tspan> Inno<tspan x="671.771px 687.451px 707.803px 718.843px 736.251px " y="540px 540px 540px 540px 540px ">vate.</tspan> A<tspan x="771.611px 789.467px 800.507px " y="540px 540px 540px ">uto</tspan>mat<tspan x="878.427px " y="540px ">e</tspan></text>
            <g transform="matrix(0.791323,0,0,0.786599,95.1858,44.7476)">
                <path d="M911.093,627.049C909.044,629.084 906.537,630.101 903.571,630.101C900.606,630.101 898.092,629.077 896.029,627.029C893.967,624.981 892.936,622.452 892.936,619.442C892.936,616.432 893.967,613.903 896.029,611.855C898.092,609.807 900.606,608.783 903.571,608.783C906.537,608.783 909.051,609.807 911.113,611.855C913.175,613.903 914.207,616.432 914.207,619.442C914.207,622.452 913.169,624.988 911.093,627.049ZM897.91,625.178C899.447,626.724 901.334,627.497 903.571,627.497C905.809,627.497 907.696,626.717 909.233,625.158C910.769,623.598 911.538,621.693 911.538,619.442C911.538,617.191 910.769,615.286 909.233,613.726C907.696,612.167 905.809,611.387 903.571,611.387C901.334,611.387 899.447,612.167 897.91,613.726C896.373,615.286 895.605,617.191 895.605,619.442C895.605,621.693 896.373,623.605 897.91,625.178Z" style="fill:white;"/>
            </g>
        </g>
    </g>
</svg>
